{"title":"Kung.Fu.Panda.2.2011.HDTVRip.x264-Biz","uid":6669758,"size":417274618,"categoryP":"video","categoryS":"movies","magnet":"?xt=urn:btih:cf7a05179822595c31c7810efa3c95b0a9db56a9&amp;dn=Kung.Fu.Panda.2.2011.HDTVRip.x264-Biz&amp;tr=udp%3A%2F%2Ftracker.openbittorrent.com%3A80&amp;tr=udp%3A%2F%2Fopen.demonii.com%3A1337&amp;tr=udp%3A%2F%2Ftracker.coppersurfer.tk%3A6969&amp;tr=udp%3A%2F%2Fexodus.desync.com%3A6969","seeders":0,"leechers":0,"uploader":"tykoon123","files":2,"time":1315787118,"description":"Cover Image:\n &lt;a href=&quot;\nhttp://img830.imageshack.us/img830/8214/kfp2bbnrgcover.png&quot; rel=&quot;nofollow&quot; target=&quot;_NEW&quot;&gt;\nhttp://img830.imageshack.us/img830/8214/kfp2bbnrgcover.png&lt;/a&gt;\n\nGeneral Details\n\nComplete name : Kung.Fu.Panda.2.2011.HDTVRip.x264-Biz\nFormat : MPEG-4\nFormat profile : Base Media / Version 2\nCodec ID : mp42\nFile size : 398 MiB\nDuration : 1h 25mn\nOverall bit rate : 650 Kbps\n\nVideo\n\nID : 1\nFormat : AVC\nFormat/Info : Advanced Video Codec\nFormat profile : &lt;a class=&quot;__cf_email__&quot; href=&quot;/cdn-cgi/l/email-protection&quot; data-cfemail=&quot;713c10181f313d425f41&quot;&gt;[email&amp;#160;protected]&lt;/a&gt;&lt;script data-cfhash='f9e31' type=&quot;text/javascript&quot;&gt;\n/* &lt;![CDATA[ */!function(){try{var t=&quot;currentScript&quot;in document?document.currentScript:function(){for(var t=document.getElementsByTagName(&quot;script&quot;),e=t.length;e--;)if(t[e].getAttribute(&quot;data-cfhash&quot;))return t[e]}();if(t&amp;&amp;t.previousSibling){var e,r,n,i,c=t.previousSibling,a=c.getAttribute(&quot;data-cfemail&quot;);if(a){for(e=&quot;&quot;,r=parseInt(a.substr(0,2),16),n=2;a.length-n;n+=2)i=parseInt(a.substr(n,2),16)^r,e+=String.fromCharCode(i);e=document.createTextNode(e),c.parentNode.replaceChild(e,c)}t.parentNode.removeChild(t);}}catch(u){}}()/* ]]&gt; */&lt;/script&gt;\nFormat settings, CABAC : Yes\nFormat settings, ReFrames : 4 frames\nCodec ID : avc1\nCodec ID/Info : Advanced Video Coding\nDuration : 1h 25mn\nBit rate mode : Variable\nBit rate : 489 Kbps\nWidth : 720 pixels\nHeight : 304 pixels\nDisplay aspect ratio : 2.35:1\nFrame rate mode : Variable\nFrame rate : 29.970 fps\nMinimum frame rate : 29.960 fps\nMaximum frame rate : 29.970 fps\nColor space : YUV\nChroma subsampling : 4:2:0\nBit depth : 8 bits\nScan type : Progressive\nBits/(Pixel*Frame) : 0.075\nStream size : 299 MiB (75%)\nWriting library : x264 core 112\n\nAudio\n\nID : 2\nFormat : AAC\nFormat/Info : Advanced Audio Codec\nFormat profile : LC\nCodec ID : 40\nDuration : 1h 24mn\nBit rate mode : Variable\nBit rate : 160 Kbps\nMaximum bit rate : 281 Kbps\nChannel(s) : 2 channels\nChannel positions : Front: L R\nSampling rate : 48.0 KHz\nCompression mode : Lossy\nStream size : 96.3 MiB (24%)\n\nIMDB Link: &lt;a href=&quot;\nhttp://www.imdb.com/title/tt1302011/&quot; rel=&quot;nofollow&quot; target=&quot;_NEW&quot;&gt;\nhttp://www.imdb.com/title/tt1302011/&lt;/a&gt; \n\nscreenshots:\n &lt;a href=&quot;\nhttp://img52.imageshack.us/img52/21/vlcsnap2011091113h56m32.png&quot; rel=&quot;nofollow&quot; target=&quot;_NEW&quot;&gt;\nhttp://img52.imageshack.us/img52/21/vlcsnap2011091113h56m32.png&lt;/a&gt; &lt;a href=&quot;\nhttp://img716.imageshack.us/img716/3731/vlcsnap2011091113h59m37.png&quot; rel=&quot;nofollow&quot; target=&quot;_NEW&quot;&gt;\nhttp://img716.imageshack.us/img716/3731/vlcsnap2011091113h59m37.png&lt;/a&gt; &lt;a href=&quot;\nhttp://img822.imageshack.us/img822/1979/vlcsnap2011091115h29m51.png&quot; rel=&quot;nofollow&quot; target=&quot;_NEW&quot;&gt;\nhttp://img822.imageshack.us/img822/1979/vlcsnap2011091115h29m51.png&lt;/a&gt; &lt;a href=&quot;\nhttp://img809.imageshack.us/img809/8643/vlcsnap2011091117h05m02.png&quot; rel=&quot;nofollow&quot; target=&quot;_NEW&quot;&gt;\nhttp://img809.imageshack.us/img809/8643/vlcsnap2011091117h05m02.png&lt;/a&gt; &lt;a href=&quot;\nhttp://img23.imageshack.us/img23/3791/vlcsnap2011091117h05m10.png&quot; rel=&quot;nofollow&quot; target=&quot;_NEW&quot;&gt;\nhttp://img23.imageshack.us/img23/3791/vlcsnap2011091117h05m10.png&lt;/a&gt; &lt;a href=&quot;\nhttp://img7.imageshack.us/img7/3829/vlcsnap2011091117h11m58.png&quot; rel=&quot;nofollow&quot; target=&quot;_NEW&quot;&gt;\nhttp://img7.imageshack.us/img7/3829/vlcsnap2011091117h11m58.png&lt;/a&gt; &lt;a href=&quot;\nhttp://img217.imageshack.us/img217/7600/vlcsnap2011091117h12m05.png&quot; rel=&quot;nofollow&quot; target=&quot;_NEW&quot;&gt;\nhttp://img217.imageshack.us/img217/7600/vlcsnap2011091117h12m05.png&lt;/a&gt; &lt;a href=&quot;\nhttp://img841.imageshack.us/img841/9241/vlcsnap2011091117h12m15.png&quot; rel=&quot;nofollow&quot; target=&quot;_NEW&quot;&gt;\nhttp://img841.imageshack.us/img841/9241/vlcsnap2011091117h12m15.png&lt;/a&gt;\n\n","torrent":{"xt":"urn:btih:cf7a05179822595c31c7810efa3c95b0a9db56a9","amp;dn":"Kung.Fu.Panda.2.2011.HDTVRip.x264-Biz","amp;tr":["udp%3A%2F%2Ftracker.openbittorrent.com%3A80","udp%3A%2F%2Fopen.demonii.com%3A1337","udp%3A%2F%2Ftracker.coppersurfer.tk%3A6969","udp%3A%2F%2Fexodus.desync.com%3A6969"],"infoHash":"cf7a05179822595c31c7810efa3c95b0a9db56a9","infoHashBuffer":{"type":"Buffer","data":[207,122,5,23,152,34,89,92,49,199,129,14,250,60,149,176,169,219,86,169]},"announce":[],"urlList":[]}}